HIERARCHY
ROOT Hips
{
	OFFSET -14.64140 90.27770 -84.91600
	CHANNELS 6 Xposition Yposition Zposition Zrotation Xrotation Yrotation
	JOINT Spine
	{
		OFFSET 0.00000 13.20850 -1.60436
		CHANNELS 3 Zrotation Xrotation Yrotation
		JOINT Spine1
		{
			OFFSET 0.00000 8.61716 0.00000
			CHANNELS 3 Zrotation Xrotation Yrotation
			JOINT Spine2
			{
				OFFSET 0.00000 8.61717 0.00000
				CHANNELS 3 Zrotation Xrotation Yrotation
				JOINT Spine3
				{
					OFFSET 0.00000 8.61717 0.00000
					CHANNELS 3 Zrotation Xrotation Yrotation
					JOINT Neck
					{
						OFFSET 0.00000 11.07920 1.10792
						CHANNELS 3 Zrotation Xrotation Yrotation
						JOINT Neck1
						{
							OFFSET 0.00000 7.08032 0.00000
							CHANNELS 3 Zrotation Xrotation Yrotation
							JOINT Head
							{
								OFFSET 0.00000 7.08031 0.00000
								CHANNELS 3 Zrotation Xrotation Yrotation
								End site
								{
									OFFSET 0.00000 0.00000 0.00000
								}
							}
						}
					}
					JOINT RightShoulder
					{
						OFFSET -0.01000 7.91373 5.19711
						CHANNELS 3 Zrotation Xrotation Yrotation
						JOINT RightArm
						{
							OFFSET -18.41580 0.00000 0.00000
							CHANNELS 3 Zrotation Xrotation Yrotation
							JOINT RightForeArm
							{
								OFFSET -29.11090 0.00000 0.00000
								CHANNELS 3 Zrotation Xrotation Yrotation
								JOINT RightHand
								{
									OFFSET -24.65040 0.00000 0.00000
									CHANNELS 3 Zrotation Xrotation Yrotation
									JOINT RightHandThumb1
									{
										OFFSET -5.35114 -0.85590 3.97906
										CHANNELS 3 Zrotation Xrotation Yrotation
										JOINT RightHandThumb2
										{
											OFFSET -4.52789 0.00000 0.00000
											CHANNELS 3 Zrotation Xrotation Yrotation
											JOINT RightHandThumb3
											{
												OFFSET -2.46976 0.00000 0.00000
												CHANNELS 3 Zrotation Xrotation Yrotation
												End site
												{
													OFFSET 0.00000 0.00000 0.00000
												}
											}
										}
									}
									JOINT RightHandIndex1
									{
										OFFSET -14.26970 0.00000 2.88139
										CHANNELS 3 Zrotation Xrotation Yrotation
										JOINT RightHandIndex2
										{
											OFFSET -5.48836 0.00000 0.00000
											CHANNELS 3 Zrotation Xrotation Yrotation
											JOINT RightHandIndex3
											{
												OFFSET -3.01859 0.00000 0.00000
												CHANNELS 3 Zrotation Xrotation Yrotation
												End site
												{
													OFFSET 0.00000 0.00000 0.00000
												}
											}
										}
									}
									JOINT RightHandMiddle1
									{
										OFFSET -14.26970 0.00000 -0.09147
										CHANNELS 3 Zrotation Xrotation Yrotation
										JOINT RightHandMiddle2
										{
											OFFSET -6.17441 0.00000 0.00000
											CHANNELS 3 Zrotation Xrotation Yrotation
											JOINT RightHandMiddle3
											{
												OFFSET -3.56743 0.00000 0.00000
												CHANNELS 3 Zrotation Xrotation Yrotation
												End site
												{
													OFFSET 0.00000 0.00000 0.00000
												}
											}
										}
									}
									JOINT RightHandRing1
									{
										OFFSET -12.69180 0.00000 -3.06433
										CHANNELS 3 Zrotation Xrotation Yrotation
										JOINT RightHandRing2
										{
											OFFSET -5.62556 0.00000 0.00000
											CHANNELS 3 Zrotation Xrotation Yrotation
											JOINT RightHandRing3
											{
												OFFSET -3.56744 0.00000 0.00000
												CHANNELS 3 Zrotation Xrotation Yrotation
												End site
												{
													OFFSET 0.00000 0.00000 0.00000
												}
											}
										}
									}
									JOINT RightHandPinky1
									{
										OFFSET -11.11390 0.00000 -6.03719
										CHANNELS 3 Zrotation Xrotation Yrotation
										JOINT RightHandPinky2
										{
											OFFSET -4.52789 0.00000 0.00000
											CHANNELS 3 Zrotation Xrotation Yrotation
											JOINT RightHandPinky3
											{
												OFFSET -2.46976 0.00000 0.00000
												CHANNELS 3 Zrotation Xrotation Yrotation
												End site
												{
													OFFSET 0.00000 0.00000 0.00000
												}
											}
										}
									}
								}
							}
						}
					}
					JOINT LeftShoulder
					{
						OFFSET 0.01000 7.91373 5.19711
						CHANNELS 3 Zrotation Xrotation Yrotation
						JOINT LeftArm
						{
							OFFSET 18.41580 0.00000 0.00000
							CHANNELS 3 Zrotation Xrotation Yrotation
							JOINT LeftForeArm
							{
								OFFSET 29.11090 0.00000 0.00000
								CHANNELS 3 Zrotation Xrotation Yrotation
								JOINT LeftHand
								{
									OFFSET 24.65040 0.00000 0.00000
									CHANNELS 3 Zrotation Xrotation Yrotation
									JOINT LeftHandThumb1
									{
										OFFSET 5.35114 -0.85590 3.97906
										CHANNELS 3 Zrotation Xrotation Yrotation
										JOINT LeftHandThumb2
										{
											OFFSET 4.52789 0.00000 0.00000
											CHANNELS 3 Zrotation Xrotation Yrotation
											JOINT LeftHandThumb3
											{
												OFFSET 2.46977 0.00000 0.00000
												CHANNELS 3 Zrotation Xrotation Yrotation
												End site
												{
													OFFSET 0.00000 0.00000 0.00000
												}
											}
										}
									}
									JOINT LeftHandIndex1
									{
										OFFSET 14.26970 0.00000 2.88139
										CHANNELS 3 Zrotation Xrotation Yrotation
										JOINT LeftHandIndex2
										{
											OFFSET 5.48836 0.00000 0.00000
											CHANNELS 3 Zrotation Xrotation Yrotation
											JOINT LeftHandIndex3
											{
												OFFSET 3.01859 0.00000 0.00000
												CHANNELS 3 Zrotation Xrotation Yrotation
												End site
												{
													OFFSET 0.00000 0.00000 0.00000
												}
											}
										}
									}
									JOINT LeftHandMiddle1
									{
										OFFSET 14.26970 0.00000 -0.09147
										CHANNELS 3 Zrotation Xrotation Yrotation
										JOINT LeftHandMiddle2
										{
											OFFSET 6.17440 0.00000 0.00000
											CHANNELS 3 Zrotation Xrotation Yrotation
											JOINT LeftHandMiddle3
											{
												OFFSET 3.56744 0.00000 0.00000
												CHANNELS 3 Zrotation Xrotation Yrotation
												End site
												{
													OFFSET 0.00000 0.00000 0.00000
												}
											}
										}
									}
									JOINT LeftHandRing1
									{
										OFFSET 12.69180 0.00000 -3.06433
										CHANNELS 3 Zrotation Xrotation Yrotation
										JOINT LeftHandRing2
										{
											OFFSET 5.62556 0.00000 0.00000
											CHANNELS 3 Zrotation Xrotation Yrotation
											JOINT LeftHandRing3
											{
												OFFSET 3.56744 0.00000 0.00000
												CHANNELS 3 Zrotation Xrotation Yrotation
												End site
												{
													OFFSET 0.00000 0.00000 0.00000
												}
											}
										}
									}
									JOINT LeftHandPinky1
									{
										OFFSET 11.11390 0.00000 -6.03719
										CHANNELS 3 Zrotation Xrotation Yrotation
										JOINT LeftHandPinky2
										{
											OFFSET 4.52789 0.00000 0.00000
											CHANNELS 3 Zrotation Xrotation Yrotation
											JOINT LeftHandPinky3
											{
												OFFSET 2.46976 0.00000 0.00000
												CHANNELS 3 Zrotation Xrotation Yrotation
												End site
												{
													OFFSET 0.00000 0.00000 0.00000
												}
											}
										}
									}
								}
							}
						}
					}
					JOINT pCube4
					{
						OFFSET 0.00000 10.91090 1.10792
						CHANNELS 3 Zrotation Xrotation Yrotation
						End site
						{
							OFFSET 0.00000 0.00000 0.00000
						}
					}
				}
			}
		}
	}
	JOINT RightUpLeg
	{
		OFFSET -9.98441 0.00000 0.00000
		CHANNELS 3 Zrotation Xrotation Yrotation
		JOINT RightLeg
		{
			OFFSET 0.00000 -42.11790 0.00000
			CHANNELS 3 Zrotation Xrotation Yrotation
			JOINT RightFoot
			{
				OFFSET 0.00000 -45.00020 -0.00001
				CHANNELS 3 Zrotation Xrotation Yrotation
				JOINT RightForeFoot
				{
					OFFSET 0.00000 -3.74820 0.00000
					CHANNELS 3 Zrotation Xrotation Yrotation
					JOINT RightToeBase
					{
						OFFSET 0.00000 0.06325 14.43120
						CHANNELS 3 Zrotation Xrotation Yrotation
						End site
						{
							OFFSET 0.00000 0.00000 0.00000
						}
					}
				}
			}
		}
	}
	JOINT LeftUpLeg
	{
		OFFSET 9.98441 0.00000 0.00000
		CHANNELS 3 Zrotation Xrotation Yrotation
		JOINT LeftLeg
		{
			OFFSET 0.00000 -42.11800 0.00000
			CHANNELS 3 Zrotation Xrotation Yrotation
			JOINT LeftFoot
			{
				OFFSET 0.00000 -45.00070 0.00000
				CHANNELS 3 Zrotation Xrotation Yrotation
				JOINT LeftForeFoot
				{
					OFFSET 0.00000 -3.74824 0.00000
					CHANNELS 3 Zrotation Xrotation Yrotation
					JOINT LeftToeBase
					{
						OFFSET 0.00000 0.06325 14.43110
						CHANNELS 3 Zrotation Xrotation Yrotation
						End site
						{
							OFFSET 0.00000 0.00000 0.00000
						}
					}
				}
			}
		}
	}
}
MOTION
Frames: 4
Frame Time: 0.050000
0.007955893177907495 -0.022371950897098782 0.0018894680957093045 0.039710064580905646 0.01954482868238072 0.0035471920612691597 1.4032843696674995 4.02777636684307 -1.5595324898195242 -0.5372653055997874 4.087447928605564 0.28671307063997614 -0.537959711573547 -1.4348942685281454 0.698641200782692 -1.3400127638901171 -0.7033393996648784 -0.31960322593798673 -1.189041498440451 12.89328840892407 1.3678410378973063 0.35100536453650194 -2.045576963423022 3.253342213477698 0.21456514037070587 -19.05900217632029 0.2285818377969695 -4.9140516892249755 2.103287707260786 -16.30128834371334 78.81642193106863 9.495201287479956 -1.6853134638687526 0.539274913141224 3.234138116108483 52.808331924205504 25.51464469260451 -0.3422422816730661 -2.7213251262955964 4.525730111287212 -0.10067004702467186 -1.6041312143335573 0.02316644433315563 0.02002667542800643 -56.26412204895825 -0.012683935687957318 0.04127448890717884 -56.21043089638175 -38.804427802452814 -0.012797276428805543 0.015961546768384748 -0.03865526896210959 0.030386325124627005 -0.02040260400555308 0.040393397015062005 0.0002551125857260954 0.03478366551124516 -36.72301465136266 -0.035428785160220626 0.024759836698931947 -0.04749940146220711 -0.0005707841501859804 -0.04072421108023087 0.002142387037789495 0.04065807145577628 0.03705895772189052 -19.799987008790385 0.02215864372183242 0.040127422338565165 0.04718702795929412 0.02929714868241598 0.029709694186311485 0.02182430769628668 -0.04193058416627259 0.04914592014236263 24.07269148729821 0.012633189904595955 0.019506245005822282 28.859943430986913 -0.03499395867963868 0.01281320407352144 28.87362868310446 -0.022375708276065925 -0.022201615272533663 8.187406319970108 2.057803641265986 14.9598558974431 -78.48587876880329 16.338014691878417 -12.0460235661402 -1.2805550897521951 12.047329855294837 -48.142769373344336 -27.27520799242278 8.37115978008004 -3.8395310077516114 -0.5212062616912677 0.09336791190438765 -8.109333072837961 0.015314849453819985 0.034328511549720844 44.58846505118813 0.024607148640094768 -0.029429324439636504 44.53696756962206 12.446859083580753 0.028729709079082014 -0.04020627414882606 0.004629525198155489 0.03877830881359506 0.026335646741920116 -0.01856500578089547 -0.00833382228149136 0.012344447939420208 11.077008666226819 -0.045010146692074406 0.04265952306200561 0.023602475268970424 -0.03602994194304546 -0.014428230639430956 0.0013757043873513799 0.008227558729174652 -0.04992107812897751 4.733680706532077 0.006881748811243235 0.026646311778343146 0.031909107128388806 -0.005691881331751821 0.04160039894865777 0.02582173912621537 0.014947767693901713 0.02727137534064058 -5.641059292409255 -0.0038815828644130387 -0.014677920949216505 -6.760592104533856 0.04513884877283264 -0.0011333161520716594 -6.765440566288017 -0.04912513294348611 -0.039434721776567094 -0.03568389950528067 0.011184010738801334 0.0007079234689719089 8.07069213379398 3.462551140549808 -19.252394246121593 0.008855570101888754 10.389988365189868 0.027256782293205113 -5.5931180645241785 -15.6158418593272 3.1757044063780735 -0.018685148982815522 -0.01206785007980133 -0.03536472486842286 0.010698521213707235 4.720188143951464 -0.037508829034841436 12.479670631161053 -8.244704618442317 6.8824427942179724 -0.014593831817893874 46.42781136199356 0.00887583919282242 -4.344970100222941 -14.775362530438613 -3.864549782331635 0.04140841352769055 0.018853454682229764 0.02076414408254091 -0.04571395776022147 -10.732579579501586 -0.01666753497091659 
-0.02010042305483341 -0.033392241896402754 0.03748593015033216 -0.0046836566206477585 -0.00664261589571082 0.0015422009208991196 0.9255637617820955 4.069574455338406 -1.4976199323071515 -0.5147408693342277 4.0648385596106875 0.31041441132948755 -0.5571116934136937 -1.4627566769055491 0.772914256466436 -1.4023940151797145 -0.7064254641228956 -0.2822116308868275 -1.1931322634778625 12.922035025217985 1.2150146457318076 0.3295244045689456 -2.175226086671298 3.007948806128638 0.32444004996834297 -19.308478620445168 0.13058048069838232 -4.5878412251340315 1.979775398327056 -16.26485171351237 78.57902925065872 9.604988556668687 -1.6027347428967735 -0.5738554692994339 3.166044577585737 54.13875515124486 26.423179438847793 -0.32655370199021533 -2.90064944544904 4.517467744169676 -0.08381595963939313 -1.5741772888607368 0.01842624742834201 -0.02761312803665383 -56.242040553115935 0.03413200362315494 -0.04284115847132952 -56.2235050472356 -38.76355528068222 -0.044296172642836217 0.02364462499662435 0.008503996116624274 -0.0048708414601240655 -0.03420702137114938 0.019083470791560527 0.030862563496499813 -0.00650673398307371 -36.70619081057316 -0.0012420690318590622 -0.005738696285310028 -0.016319682239783553 -0.01798057191648279 -0.011140277780440166 -0.019746286596916404 0.029696228555776312 0.038523787038696536 -19.754771149323005 -0.04070313638543033 0.0007273216211099809 0.015280203436861088 0.02847646493939867 -0.0063123000294669765 -0.04438119090670417 0.037526170172943116 0.003795310641534581 24.089404870535727 -0.007908313000616785 0.028595490922665386 28.896216370791294 0.03244622096463188 -0.04003826320267509 28.90168733494127 0.016690184451079598 -0.01591501956789274 7.890508411719172 1.927362475081213 15.018095614420904 -78.75960774136624 15.850577764416096 -11.31491919369926 -0.3885369741881497 12.083882608467338 -47.174064741037014 -28.16708083623149 9.245279070268495 -4.542079629503453 -0.49720790448704993 0.07607978751201054 -8.101062745199899 0.03125086833835759 0.02759624442281401 44.60754222617065 0.045898693180788 -0.03909237405035632 44.56907797573707 12.480917960122616 -0.025675353643405518 0.03278711001796866 0.0010077904503224678 0.019836912635700008 -0.01218737015840422 -0.00976760423201901 0.023441984385093248 -0.02645722748687021 11.122412814051051 -0.019366394855983068 0.017001237990224974 0.011827512404905673 -0.0013311801353741715 0.029093763281256683 0.039262698789251316 -0.014581787848574121 0.01605056587523433 4.785525208071391 -0.047208428644597 0.0015895399202257216 0.004501380685613304 0.013450878192170041 0.00030413427420868263 -0.0427084662467508 -0.02097985924230583 -0.02397632040466703 -5.584508828255298 0.042701994070977474 -0.0395735783715879 -6.725160629098704 -0.005973363923987207 -0.006226087714761508 -6.706360149526191 0.004962443633134553 0.029240199964446743 -0.02720686653152566 -0.0005349379795164767 0.0027008338603309178 8.060129209154468 3.4458376524283283 -19.25012671813771 -0.022281320325993316 10.348481549527392 0.00384223408866732 -5.601356371112678 -15.70982775418766 3.1672011397675623 0.032495414106414745 0.008990896600512064 0.030304008512095405 -0.0030620044928230325 4.712305583668405 -0.0056545345351690065 12.502410894036322 -8.263630152846325 6.887127162399526 -0.04588750515957383 46.37676245123616 -0.0286616572251146 -4.309725296620513 -14.7465552483667 -3.7880075307437204 0.024047801133997865 -0.018254739530190033 -0.005944075973774654 0.01512819468142493 -10.71052013603213 -0.03403816812696499 
0.012547889738229977 0.016570654666521377 -0.012600377643315432 0.012556104176920949 0.0025189539156386742 0.04140259596551929 0.5193896026782245 4.09220568652362 -1.4573049164764562 -0.5601577695494693 4.139361667312538 0.3339902004323727 -0.5649593763698622 -1.4763773477528674 0.739872702295296 -1.5058256399046916 -0.7781027682241349 -0.304749912280298 -1.1291156030817704 12.813930982575856 1.2281947556276527 0.3552820807286871 -2.330520097892371 2.878738730840772 0.3608181295243715 -19.48417056208728 0.17827552038889768 -4.402459863554957 1.928467186474752 -16.246300600546085 78.3466686128556 9.871089043079602 -1.7332792152492646 -1.5156008450657201 2.91686070169048 55.68123655201102 27.120496317121184 -0.3000084959862194 -3.0730029714866314 4.479952665261111 -0.09549787960759687 -1.5585466557792371 0.012355364661154068 0.038214028612026836 -56.24669968175793 0.016664826612238195 0.016138874020085434 -56.23953733784485 -38.77178684244003 -0.02982280993860803 -0.03415107333881849 0.00012882931157295283 0.027733103526298052 -0.00733879509092533 -0.02118261916496972 -0.0203547973168435 0.011888137554199709 -36.69535034575304 -0.014857922397832169 -0.004910033771849773 -0.0327696122161982 -0.021519945573723047 -0.019356984589894023 -0.02594344680544993 -0.028146126072983817 -0.002788760829454378 -19.756074657164564 0.01798560624688484 -0.006160402346867164 -0.04257452229828654 -0.03365277529119633 -0.010184577681373572 0.0021937631472184844 -0.0008114883232353605 -0.013031312021924792 24.060011634381155 0.01602387134655509 0.04551218674534709 28.84433927757433 0.045009159738491324 0.015839991739664216 28.865263487007713 -0.01177639107384104 0.042378188561526954 7.652631917230206 1.874603086748234 15.077322291191283 -78.9512462706328 16.038331391375763 -10.730713025242906 -0.11683170551913072 11.333010459270753 -46.531180051877755 -28.92811115498307 9.66957095803349 -4.951598142997878 -0.5195660027285851 0.06624118825684558 -8.132966119263322 -0.028881590839814498 -0.002583835448492073 44.59907353096679 0.006421182854118639 -0.024013286557560645 44.606492112996484 12.417809010856041 0.0229324130798139 -0.022566617010156144 0.02360853316783075 -0.0376745207336435 -0.025857139384446514 -0.017456901879178213 -0.034766472692437274 0.036963651364503546 11.14241198792923 -0.0010933875747453612 0.04440506086716221 -0.010249232212795592 -0.000885406929914261 -0.02558311984241222 0.0008440367522289235 0.0037850742313238527 0.0071251970453883595 4.7230198159817425 -0.04994257494793932 0.019172254840227273 0.03778747807087994 -0.006336261862691699 0.04175746738394726 -0.03571876812226619 -0.019158017722717528 0.007033330492772392 -5.5837313059123055 -0.02870670659606767 -0.01175350134967565 -6.679787975352143 -0.005659609064391388 0.008853613540648167 -6.702851672669948 -0.015056587225232619 -0.039140295541841126 -0.011430310893017654 -0.01501559637707744 -0.00819948337986412 8.025961258948564 3.4714133946739327 -19.238500008250686 -0.00016266361026913653 10.399827808839133 -0.015398691994967417 -5.651567276520112 -15.654463421340656 3.2065298250484355 0.003973741408986344 -0.021363005589110747 -0.02012547645644456 0.016356760483252467 4.736749230180297 -0.03463481087909285 12.487278245606891 -8.220025865842544 6.886305974184033 0.04878205174269099 46.400838448283565 0.010324637475778017 -4.303102554191833 -14.794325453860674 -3.865674083245715 0.04995335351695394 0.044536014828478056 -0.04665780427514039 0.0321593616879658 -10.70015787099371 -0.015603448288871972 
0.007477056871115099 0.0078080491323291494 0.009066598499375142 -0.027006722536971412 0.03355630106802961 -0.02560743166849453 0.05672508146651474 4.095612575589703 -1.3711110553902857 -0.4885854461876099 4.142989704021934 0.2963844555533916 -0.6016780641453113 -1.4900833446889794 0.8291486435903351 -1.5340980991888356 -0.7637832600464805 -0.2995424835051451 -1.156167552184282 12.692893105011857 1.272415368775213 0.38328913702283673 -2.4073129369583763 2.901767180643775 0.3540462384406422 -19.598764024091658 0.11750420352644382 -3.9626851419996796 1.7521843599822968 -16.088625577136636 78.04631667084965 9.64044657517274 -1.855125776246036 -2.2098891377507246 3.6243506411229585 55.866307279379775 27.89827239600273 -0.34431011056363514 -2.9226981167865755 4.508588438903661 -0.12747242504479958 -1.5974866265732481 0.0032886579811224345 0.0039851650218903295 -56.258760547772994 0.04235205065411639 0.0008607291494543091 -56.18983426962072 -38.782237271036585 0.034100702831228444 0.022508817229168525 0.020525943430326713 -0.02147581203274689 0.0043453147187470734 -0.021976955055431305 0.00794316912753359 0.019664262478707475 -36.66389823709249 -0.012070152403506638 -0.04998495038328097 0.016600541973750948 -0.02900897084998743 -0.026738905494981438 -0.01996939701591277 0.03188202467756657 -0.026826481706812885 -19.770656189736833 -0.003121401741714172 0.04062272156478765 0.004541534107372805 0.01565639699458939 -0.01848334906837654 0.031823000636086056 -0.04516689474087394 0.03196760208363963 24.024928310598916 -0.015860616462187213 -0.031619190678133534 28.8845133586158 -0.0027969340976223113 0.01519514367640862 28.90414430529682 0.012014826038120482 0.033184549243260655 7.166583957753401 1.8323698443122052 14.988514239022455 -79.10689874441789 15.792343575362235 -9.856571333565237 0.9069676420216328 11.387046662188924 -45.152986704563055 -29.48685959564452 10.870277435119268 -5.888648119336204 -0.45398521938557745 0.08591577541117686 -8.158594119113237 0.007833091883266969 0.0243477778869169 44.56054970746544 -0.013156972344285813 0.01866158124811261 44.596695793244145 12.470935547191269 0.022651997617218658 -0.03261497720719257 0.036042537289749585 0.007237109507403135 -0.020142890899150608 -0.0323084224517481 0.024787951625834574 0.0007192696278880939 11.15287530775253 -0.020450719980119613 -0.008755035605426467 -0.04931480622813391 -0.021663715309025357 -0.008747192579252237 -0.03792707071952062 0.042519099216340624 0.026052527001324245 4.728454474371703 -0.008045029573554179 0.017366706963665608 -0.019865089202853757 0.012044699231659253 0.040231963119032745 0.03455385266152364 -0.02164430232631941 -0.04241211992455067 -5.631443978544428 0.043551772080121814 -0.023710749341118144 -6.692494634089522 -0.005434154216614938 -0.015762920383957827 -6.731273236452735 0.039676626018185855 -0.0242996277131014 -0.014777556646010949 0.0406947156027163 0.041596456734412576 8.063164995630627 3.510577157246018 -19.208005628872336 0.025017661668441507 10.402713376501179 0.031220749385799784 -5.647761405793627 -15.611988876088368 3.1436483176619032 0.017426335331292005 0.010659503438650105 0.024396287895320255 0.023390381270175557 4.698834814621884 0.044073269538498445 12.432714448147925 -8.218419045003806 6.856642691642803 0.005088841870713246 46.36340494000567 -0.019401741565055447 -4.326196578904218 -14.765754876589675 -3.8712266156366733 0.031435767276651136 0.04518518568584469 0.03358634903721398 0.034187062762582626 -10.73999720097429 0.004431975873062119 
